<?xml version="1.0" ?><!DOCTYPE svg  PUBLIC '-//W3C//DTD SVG 1.1 Tiny//EN'  'http://www.w3.org/Graphics/SVG/1.1/DTD/svg11-tiny.dtd'><svg baseProfile="tiny" overflow="scroll" version="1.1" viewBox="0 0 128 128" xml:space="preserve" xmlns="http://www.w3.org/2000/svg" xmlns:xlink="http://www.w3.org/1999/xlink"><g><g id="BACKGROUND"/><g id="Layer_3"><g><path d="M117,58.4h-8.3c-0.3-7.5-3.4-14.3-8.1-19.3c-5.1-5.3-12.1-8.6-19.8-8.6h-18c-7.7,0-14.7,3.3-19.8,8.6      c-4.8,5-7.8,11.8-8.1,19.3h-8.6c-4.3,0-8.2,1.3-11.5,3.5l0,0c0,0,0,0,0,0c-1.1,0.7-2.1,1.6-3.1,2.5c-0.2,0.2-0.3,0.4-0.5,0.6      c-0.1,0.1-0.3,0.2-0.4,0.3c-0.6,0.7-1.1,1.4-1.6,2.1c-0.1,0.1-0.1,0.2-0.2,0.3c-0.4,0.6-0.8,1.2-1.1,1.9c0,0.1,0,0.1,0,0.2      c-0.8,1.7-1.5,3.4-1.8,5.3c0,0,0,0,0,0.1c-0.1,0.6-0.2,1.2-0.3,1.9c-0.1,0.7-0.1,1.3-0.1,2v0c0,1.4,0.6,2.7,1.5,3.6l0,0l0,0      c0.9,0.9,2.2,1.5,3.6,1.5H15c0.3,3.5,1.8,6.7,4.2,9c2.7,2.7,6.4,4.3,10.5,4.3c4.1,0,7.8-1.7,10.5-4.3c2.4-2.4,3.9-5.5,4.2-9      h39.9c0.3,3.5,1.8,6.7,4.2,9c2.7,2.7,6.4,4.3,10.5,4.3s7.8-1.7,10.5-4.3c2.4-2.4,3.9-5.5,4.2-9h1.6c2,0,3.9-0.8,5.2-2.2l0,0      c1.3-1.3,2.2-3.2,2.2-5.2v-1.3V63.8c0-1.5-0.6-2.8-1.6-3.8C119.9,59,118.5,58.4,117,58.4z M98.6,41c4.3,4.5,7.1,10.6,7.4,17.3      H73.2V33.3h7.6C87.7,33.3,94,36.2,98.6,41z M45,41c4.6-4.8,10.9-7.8,17.8-7.8h7.6v25.1H37.6C38,51.6,40.7,45.5,45,41z       M36.2,61.2h71.3h9.6c0.7,0,1.4,0.3,1.8,0.8c0.5,0.5,0.8,1.1,0.8,1.8V74h-9c-0.4-0.6-0.9-1.2-1.5-1.7c-2.7-2.7-6.4-4.3-10.5-4.3      s-7.8,1.7-10.5,4.3c-0.5,0.5-1,1.1-1.5,1.7H41.5c-0.4-0.6-0.9-1.2-1.5-1.7c-2.7-2.7-6.4-4.3-10.5-4.3c-4.1,0-7.8,1.7-10.5,4.3      c-0.5,0.5-1,1.1-1.5,1.7H9.2c0.2-0.6,0.3-1.3,0.6-1.9c0.1,0,0.1,0.1,0.2,0.1c0.6,0.2,1.2,0.3,1.7,0.3c1.7,0,3.3-0.7,4.5-1.9l0,0      l0,0l0,0c1.1-1.1,1.8-2.7,1.8-4.5c0-0.7-0.1-1.4-0.4-2.1c-0.1-0.2-0.2-0.3-0.2-0.4c2.6-1.5,5.6-2.4,8.8-2.4H36.2z M44.2,80.4      c-0.1-0.4-0.1-0.8-0.2-1.1c-0.1-0.2-0.1-0.5-0.2-0.7c0,0,0-0.1,0-0.1c-0.1-0.4-0.3-0.9-0.5-1.3c0-0.1-0.1-0.2-0.1-0.3      c0,0,0-0.1,0-0.1h42.1c0,0,0,0.1,0,0.1c0,0.1-0.1,0.2-0.1,0.3c-0.2,0.4-0.3,0.8-0.5,1.3c0,0,0,0.1,0,0.1      c-0.1,0.2-0.1,0.5-0.2,0.7c-0.1,0.4-0.1,0.7-0.2,1.1c0,0.3-0.1,0.6-0.2,0.9H44.3C44.3,81,44.2,80.7,44.2,80.4z M11.3,69.3      c0.2-0.3,0.4-0.6,0.6-0.8c0.4-0.6,0.9-1.2,1.4-1.7c0.3-0.3,0.6-0.6,0.9-0.8c0.3-0.3,0.6-0.5,0.9-0.7c0.1,0.3,0.1,0.6,0.1,0.9      c0,1-0.4,1.9-1,2.5l0,0c-0.6,0.6-1.5,1-2.5,1c-0.2,0-0.4,0-0.6,0C11.2,69.5,11.2,69.4,11.3,69.3z M9,80.7L9,80.7      c-0.4-0.4-0.7-1-0.7-1.6v0c0-0.8,0.1-1.5,0.2-2.2h7.5c0,0,0,0.1,0,0.1c0,0.1-0.1,0.2-0.1,0.3c-0.2,0.4-0.3,0.8-0.5,1.3      c0,0,0,0.1,0,0.1c-0.1,0.2-0.1,0.5-0.2,0.7c-0.1,0.4-0.1,0.7-0.2,1.1c0,0.3-0.1,0.6-0.2,0.9h-4.3C10,81.3,9.4,81.1,9,80.7z       M38.1,91.2c-2.2,2.2-5.2,3.5-8.5,3.5c-3.3,0-6.3-1.3-8.5-3.5c-2.2-2.2-3.5-5.2-3.5-8.5c0-1.1,0.2-2.1,0.4-3      c0.1-0.3,0.2-0.5,0.2-0.8c0.3-0.9,0.7-1.7,1.2-2.5c0.5-0.8,1-1.5,1.7-2.1c2.2-2.2,5.2-3.5,8.5-3.5c3.3,0,6.3,1.3,8.5,3.5      c0.7,0.7,1.2,1.4,1.7,2.2c0.5,0.7,0.8,1.5,1.1,2.4c0.1,0.3,0.2,0.5,0.2,0.8c0.3,1,0.4,2,0.4,3C41.6,86.1,40.3,89,38.1,91.2z       M107.2,91.2c-2.2,2.2-5.2,3.5-8.5,3.5c-3.3,0-6.3-1.3-8.5-3.5c-2.2-2.2-3.5-5.2-3.5-8.5c0-1.1,0.2-2.1,0.4-3      c0.1-0.3,0.2-0.5,0.2-0.8c0.3-0.9,0.7-1.7,1.2-2.5c0.5-0.8,1-1.5,1.7-2.1c2.2-2.2,5.2-3.5,8.5-3.5c3.3,0,6.3,1.3,8.5,3.5      c0.7,0.7,1.2,1.4,1.7,2.3c0.5,0.7,0.8,1.5,1.1,2.4c0.1,0.3,0.2,0.5,0.2,0.8c0.3,1,0.4,2,0.4,3C110.7,86.1,109.4,89,107.2,91.2z       M115,81.3h-1.5c0-0.3-0.1-0.6-0.2-0.9c-0.1-0.4-0.1-0.8-0.2-1.1c-0.1-0.2-0.1-0.5-0.2-0.7c0,0,0-0.1,0-0.1      c-0.1-0.4-0.3-0.9-0.5-1.3c0-0.1-0.1-0.2-0.1-0.3c0,0,0-0.1,0-0.1h7.3c0,0.4-0.1,0.8-0.2,1.1c-0.1,0.2,0,0.4-0.1,0.6      c-0.2,0.5-0.6,1-1,1.4C117.5,80.8,116.3,81.3,115,81.3z" fill="#1B1B1B"/><path d="M34.9,77.5L34.9,77.5L34.9,77.5c-1.4-1.4-3.2-2.2-5.3-2.2c-2.1,0-3.9,0.8-5.3,2.2      c-1.4,1.4-2.2,3.2-2.2,5.3c0,2.1,0.8,3.9,2.2,5.3l0,0l0,0c1.4,1.4,3.2,2.2,5.3,2.2c2,0,3.8-0.8,5.2-2.1c0,0,0.1-0.1,0.1-0.1      c1.4-1.4,2.2-3.2,2.2-5.3C37.1,80.7,36.3,78.8,34.9,77.5L34.9,77.5z M32.9,86C32.9,86.1,32.9,86.1,32.9,86      c-0.9,0.9-2,1.4-3.3,1.4c-1.3,0-2.5-0.5-3.3-1.4l0,0c-0.8-0.8-1.4-2-1.4-3.3c0-1.3,0.5-2.5,1.4-3.3c0.8-0.8,2-1.4,3.3-1.4      c1.3,0,2.5,0.5,3.3,1.4l0,0c0.8,0.8,1.4,2,1.4,3.3C34.3,84,33.8,85.2,32.9,86z" fill="#1B1B1B"/><path d="M104.1,77.5L104.1,77.5L104.1,77.5c-1.4-1.4-3.2-2.2-5.3-2.2c-2.1,0-3.9,0.8-5.3,2.2      c-1.4,1.4-2.2,3.2-2.2,5.3c0,2.1,0.8,3.9,2.2,5.3l0,0l0,0c1.4,1.4,3.2,2.2,5.3,2.2c2,0,3.8-0.8,5.2-2.1c0,0,0.1-0.1,0.1-0.1      c1.4-1.4,2.2-3.2,2.2-5.3C106.2,80.7,105.4,78.8,104.1,77.5L104.1,77.5z M102.1,86C102,86.1,102,86.1,102.1,86      c-0.9,0.9-2,1.4-3.3,1.4c-1.3,0-2.5-0.5-3.3-1.4l0,0c-0.8-0.8-1.4-2-1.4-3.3c0-1.3,0.5-2.5,1.4-3.3c0.8-0.8,2-1.4,3.3-1.4      c1.3,0,2.5,0.5,3.3,1.4l0,0c0.8,0.8,1.4,2,1.4,3.3C103.4,84,102.9,85.2,102.1,86z" fill="#1B1B1B"/></g></g><g id="GUIDELINE"/></g></svg>