<?xml version="1.0" ?><!DOCTYPE svg  PUBLIC '-//W3C//DTD SVG 1.1//EN'  'http://www.w3.org/Graphics/SVG/1.1/DTD/svg11.dtd'><svg enable-background="new 0 0 800 800" height="800px" id="Layer_1" version="1.1" viewBox="0 0 800 800" width="800px" xml:space="preserve" xmlns="http://www.w3.org/2000/svg" xmlns:xlink="http://www.w3.org/1999/xlink"><g><path d="M424.27,592.268c2.592,0.42,10.459,1.669,18.904,16.327c3.848,6.698,12.41,8.993,19.099,5.137   c6.689-3.855,8.991-12.41,5.128-19.106c-10.021-17.391-23.041-27.476-38.713-29.972c-32.798-5.246-65.674,24.18-94.631,50.139   c-11.333,10.163-22.034,19.765-29.441,23.917c-15.259,8.57-28.552,10.521-36.45,5.354c-1.64-1.076-2.826-2.31-3.637-3.496   c5.651-0.594,10.599-4.621,12.083-10.46c1.905-7.478-2.615-15.094-10.1-16.999c-14.377-3.669-24.056,2.996-28.31,10.443   c-6.4,11.193-3.099,27.333,7.845,38.371c3.949,3.98,14.868,12.924,33.102,12.924c10.576,0,23.61-3.012,39.159-11.737   c10.1-5.667,21.37-15.784,34.436-27.491C374.612,616.011,404.554,589.209,424.27,592.268z" fill="#000"/><path d="M580.739,594.345c2.585,0.421,10.452,1.67,18.897,16.327c3.855,6.696,12.426,8.991,19.106,5.137   c6.689-3.857,8.992-12.41,5.129-19.108c-10.022-17.389-23.05-27.474-38.722-29.972c-5.627-0.889-11.256-0.703-16.859,0.25   c0.14-153.371-0.289-239.99-0.905-289.179h183.313c7.728,0,13.986-6.26,13.986-13.987c0-7.719-6.259-13.987-13.986-13.987H566.949   c-0.688-34.218-1.469-36.91-1.953-38.573c-15.438-52.715-59.74-88.128-110.139-88.128l-5.347-0.031   c-59.069,0-107.336,56.284-110.248,126.733h-6.518c-7.727,0-13.987,6.268-13.987,13.987c0,7.727,6.26,13.987,13.987,13.987h206.682   c0.188,16.461,0.344,36.005,0.477,58.469H295.937c-0.031-109.062-0.733-112.411-1.171-114.51   c-12.113-58.079-58.522-98.635-112.77-98.635l-5.338-0.031c-59.085,0-107.346,56.284-110.256,126.733h-33.02   c-7.724,0-13.987,6.268-13.987,13.987c0,7.727,6.263,13.987,13.987,13.987h193.792c7.727,0,13.987-6.26,13.987-13.987   c0-7.719-6.26-13.987-13.987-13.987H94.359c2.717-55.018,38.535-98.759,82.212-98.759l5.347,0.031   c40.743,0,75.757,31.119,85.326,75.757c0.516,7.126,1.179,61.232,0.25,334.284l-0.009,3.902   c-30.681-0.858-61.185,26.43-88.276,50.719c-11.333,10.178-22.034,19.779-29.441,23.932c-15.26,8.553-28.552,10.506-36.458,5.339   c-1.647-1.094-2.826-2.327-3.646-3.497c5.659-0.61,10.608-4.638,12.091-10.475c1.904-7.477-2.623-15.096-10.116-17.001   c-14.361-3.651-24.041,2.999-28.302,10.445c-6.4,11.206-3.09,27.349,7.852,38.385c3.95,3.981,14.877,12.926,33.11,12.926   c10.568,0,23.603-3.014,39.15-11.725c10.1-5.665,21.378-15.781,34.437-27.504c21.886-19.606,51.905-46.441,71.527-43.35   c2.59,0.42,10.451,1.669,18.896,16.327c3.863,6.681,12.41,8.976,19.099,5.121c6.697-3.857,8.992-12.41,5.136-19.093   c-4.98-8.631-10.701-15.469-17.117-20.465l0.04-13.893c0.015-5.026,0.03-9.975,0.054-14.846h244.811   c0,8.147-0.017,16.375-0.017,24.758l-0.008,5.151c0,0.483,0.094,0.951,0.148,1.422c-17.374,10.02-34.226,25.068-49.93,39.15   c-11.333,10.162-22.033,19.762-29.434,23.914c-15.268,8.57-28.559,10.505-36.45,5.339c-1.654-1.076-2.825-2.311-3.645-3.481   c5.65-0.594,10.599-4.636,12.082-10.458c1.912-7.494-2.614-15.096-10.107-17.001c-14.377-3.667-24.041,2.983-28.302,10.428   c-6.4,11.193-3.106,27.336,7.845,38.372c3.948,3.979,14.868,12.94,33.108,12.926c10.577,0,23.604-2.999,39.159-11.725   c10.093-5.667,21.362-15.782,34.422-27.491C531.075,618.071,561.04,591.299,580.739,594.345z M367.221,249.826   c2.725-55.018,38.534-98.759,82.213-98.759l5.339,0.031c37.729,0,71.074,27.014,83.171,67.312   c0.407,3.465,0.766,14.213,1.078,31.416H367.221z M540.254,429.654H295.843c0.046-24.649,0.07-46.317,0.078-65.408h244.13   C540.138,384.29,540.208,406.129,540.254,429.654z M295.609,518.415c0.063-21.854,0.125-42.071,0.171-60.786h244.521   c0.031,19.309,0.038,39.588,0.038,60.786H295.609z" fill="#000"/><path d="M778.734,595.734c-10.021-17.392-23.057-27.477-38.721-29.975c-32.837-5.214-65.665,24.167-94.615,50.142   c-11.342,10.162-22.05,19.764-29.449,23.916c-15.267,8.554-28.552,10.506-36.45,5.339c-1.654-1.078-2.825-2.311-3.646-3.481   c5.659-0.593,10.607-4.62,12.091-10.46c1.905-7.492-2.623-15.094-10.108-16.998c-14.369-3.67-24.048,2.98-28.309,10.428   c-6.4,11.208-3.107,27.333,7.844,38.384c3.949,3.982,14.869,12.926,33.102,12.911c10.576,0,23.604-2.997,39.151-11.725   c10.107-5.667,21.386-15.781,34.452-27.488c21.87-19.624,51.92-46.472,71.526-43.351c2.583,0.421,10.444,1.67,18.89,16.328   c3.871,6.697,12.425,8.976,19.106,5.121C780.296,610.968,782.59,602.415,778.734,595.734z" fill="#000"/></g></svg>