<svg height="512" viewBox="0 0 512 512" width="512" xmlns="http://www.w3.org/2000/svg"><g id="Filled_outline" data-name="Filled outline"><rect fill="#4d5e78" height="144" rx="32" width="224" x="240" y="24"/><path d="m464 56v80a32 32 0 0 1 -32 32h-160a32 32 0 0 1 -32-32h160a32 32 0 0 0 32-32v-80a32 32 0 0 1 32 32z" fill="#44546c"/><path d="m80 64h160a0 0 0 0 1 0 0v64a0 0 0 0 1 0 0h-160a32 32 0 0 1 -32-32 32 32 0 0 1 32-32z" fill="#e0e0de"/><path d="m88 96h120v32h-120z" fill="#c7c7c5"/><path d="m24 408h96a0 0 0 0 1 0 0v64a16 16 0 0 1 -16 16h-64a16 16 0 0 1 -16-16v-64a0 0 0 0 1 0 0z" fill="#4d5e78"/><path d="m24 408h96v48h-96z" fill="#44546c"/><path d="m392 408h96a0 0 0 0 1 0 0v64a16 16 0 0 1 -16 16h-64a16 16 0 0 1 -16-16v-64a0 0 0 0 1 0 0z" fill="#4d5e78"/><path d="m392 408h96v48h-96z" fill="#44546c"/><rect fill="#f35244" height="144" rx="32" width="464" x="24" y="296"/><rect fill="#e0e0de" height="48" rx="16" width="80" x="56" y="328"/><rect fill="#e0e0de" height="48" rx="16" width="80" x="376" y="328"/><path d="m24 408h464a0 0 0 0 1 0 0 32 32 0 0 1 -32 32h-400a32 32 0 0 1 -32-32 0 0 0 0 1 0 0z" fill="#d6d6d4"/><path d="m412 200h-312l4.21-11.24a32.011 32.011 0 0 1 29.97-20.76h243.64a32.011 32.011 0 0 1 29.97 20.76z" fill="#f35244"/><path d="m100 200-36 96h384l-36-96z" fill="#60d1e0"/><path d="m412 200h-97.5l46-32h17.32a32.011 32.011 0 0 1 29.97 20.76z" fill="#ea4a3b"/><path d="m412 200h-97.5l-138 96h271.5z" fill="#5ac6d4"/><path d="m120 320h-48a24.027 24.027 0 0 0 -24 24v16a24.027 24.027 0 0 0 24 24h48a24.027 24.027 0 0 0 24-24v-16a24.027 24.027 0 0 0 -24-24zm8 40a8.009 8.009 0 0 1 -8 8h-48a8.009 8.009 0 0 1 -8-8v-16a8.009 8.009 0 0 1 8-8h48a8.009 8.009 0 0 1 8 8z"/><path d="m392 320a24.027 24.027 0 0 0 -24 24v16a24.027 24.027 0 0 0 24 24h48a24.027 24.027 0 0 0 24-24v-16a24.027 24.027 0 0 0 -24-24zm56 24v16a8.009 8.009 0 0 1 -8 8h-48a8.009 8.009 0 0 1 -8-8v-16a8.009 8.009 0 0 1 8-8h48a8.009 8.009 0 0 1 8 8z"/><path d="m160 328h192v16h-192z"/><path d="m160 360h192v16h-192z"/><path d="m89.167 240h53.666v16h-53.666z" transform="matrix(.447 -.894 .894 .447 -157.695 240.845)"/><path d="m384 128h24a32 32 0 0 0 0-64h-24a8 8 0 0 0 -8 8v48a8 8 0 0 0 8 8zm8-48h16a16 16 0 0 1 0 32h-16z"/><path d="m306.666 65.823-5.332 15.085a16 16 0 0 1 -5.334 31.092h-16v-32h8v-16h-16a8 8 0 0 0 -8 8v48a8 8 0 0 0 8 8h24a32 32 0 0 0 10.666-62.177z"/><path d="m344 56h16v88h-16z"/><path d="m456 272a40.045 40.045 0 0 0 40-40v-56a40.272 40.272 0 0 0 -24.146-36.722c.089-1.083.146-2.173.146-3.278v-80a40.045 40.045 0 0 0 -40-40h-160a40.045 40.045 0 0 0 -40 40h-152a40 40 0 0 0 0 80h152a39.788 39.788 0 0 0 8.022 24h-105.846a40.187 40.187 0 0 0 -37.454 25.956l-4.213 11.235v.012l-34.053 90.797h-2.456a40.045 40.045 0 0 0 -40 40v144a24.027 24.027 0 0 0 24 24h64a24.027 24.027 0 0 0 24-24v-24h256v24a24.027 24.027 0 0 0 24 24h64a24.027 24.027 0 0 0 24-24v-144a40.045 40.045 0 0 0 -40-40h-2.456l-6.373-16.992a40.068 40.068 0 0 0 8.829.992zm24-96v56a24.018 24.018 0 0 1 -40.985 16.981c-.056-.056-.116-.125-.173-.185l-6.842-18.246v-54.55a40.032 40.032 0 0 0 35.278-21.17 24.158 24.158 0 0 1 12.722 21.17zm-64 11.88-.722-1.924a39.591 39.591 0 0 0 -5.485-9.956h6.207zm-320-67.88v-16h104v16zm120 0v-24a8 8 0 0 0 -8-8h-120a8 8 0 0 0 -8 8v24a24 24 0 0 1 0-48h152v48zm32 16v-80a24.027 24.027 0 0 1 24-24h160a24.027 24.027 0 0 1 24 24v80h-16v16h9.869a23.943 23.943 0 0 1 -17.869 8h-160a24.027 24.027 0 0 1 -24-24zm-136.3 55.573a24.113 24.113 0 0 1 22.476-15.573h243.648a24.11 24.11 0 0 1 22.476 15.573l.16.427h-288.916zm336.3 256.427v32h-16v-32zm8-16h-400a24.039 24.039 0 0 1 -22.624-16h445.248a24.039 24.039 0 0 1 -22.624 16zm-392 16h16v32h-16zm-32 24v-32.022a39.841 39.841 0 0 0 16 7.222v32.8h-8a8.009 8.009 0 0 1 -8-8zm80 0a8.009 8.009 0 0 1 -8 8h-8v-32h16zm288 0v-24h16v32h-8a8.009 8.009 0 0 1 -8-8zm72 8h-8v-32.8a39.841 39.841 0 0 0 16-7.217v32.017a8.009 8.009 0 0 1 -8 8zm8-152v72h-448v-72a24.028 24.028 0 0 1 24-24h400a24.028 24.028 0 0 1 24 24zm-404.456-40 30-80h300.912l30 80z"/></g></svg>