<?xml version="1.0" ?><!DOCTYPE svg  PUBLIC '-//W3C//DTD SVG 1.1//EN'  'http://www.w3.org/Graphics/SVG/1.1/DTD/svg11.dtd'><svg enable-background="new 0 0 512 512" height="512px" version="1.1" viewBox="0 0 512 512" width="512px" xml:space="preserve" xmlns="http://www.w3.org/2000/svg" xmlns:xlink="http://www.w3.org/1999/xlink"><g id="Ebene_3"/><g id="Ebene_1"/><g id="Ebene_2"><g><path d="M326.517,185.483C264.943,123.91,183.078,90,96,90v12c83.873,0,162.725,32.662,222.031,91.969    C377.338,253.275,410,332.127,410,416h12C422,328.922,388.09,247.057,326.517,185.483z"  fill="#000"/><path d="M97,218v12c102,0,185.667,83.439,185.667,186h12C294.667,306.822,206,218,97,218z"  fill="#000"/><path d="M128,346c-20.953,0-38,17.047-38,38s17.047,38,38,38s38-17.047,38-38S148.953,346,128,346z M128,410    c-14.336,0-26-11.664-26-26s11.664-26,26-26s26,11.664,26,26S142.336,410,128,410z"  fill="#000"/></g></g></svg>