<?xml version="1.0" encoding="utf-8"?>
<!-- Generator: Adobe Illustrator 23.0.5, SVG Export Plug-In . SVG Version: 6.00 Build 0)  -->
<svg version="1.1" id="Capa_1" xmlns="http://www.w3.org/2000/svg" xmlns:xlink="http://www.w3.org/1999/xlink" x="0px" y="0px"
	 viewBox="0 0 562.4 924.5" style="enable-background:new 0 0 562.4 924.5;" xml:space="preserve">
<style type="text/css">
	.st0{display:none;enable-background:new    ;}
	.st1{font-family:'Impact';}
	.st2{font-size:260.511px;}
	.st3{display:none;fill:#E6B54A;enable-background:new    ;}
	.st4{font-size:98.1371px;}
	.st5{display:none;fill:none;stroke:#DB9600;stroke-width:2;stroke-miterlimit:10;}
	.st6{fill:#FFAA00;}
</style>
<g>
	<text transform="matrix(1 0 0 1 11.2368 488.6636)" class="st0 st1 st2">Royal</text>
	<text transform="matrix(3.464102e-07 -1 1 3.464102e-07 3.9997 488.6651)" class="st3 st1 st4">Hotel</text>
	<line class="st5" x1="401.6" y1="510.2" x2="605.5" y2="510.2"/>
	<g>
		<g>
			<path class="st6" d="M100.4,408.7l409.8,170.4c25.8,10.7,42.6,35.9,42.6,63.9v24.5c0,27.9-16.8,53.1-42.5,63.9L100.5,902.6
				c-45.6,19.1-95.9-14.4-95.9-63.9l0,0c0-28.2,17.1-53.6,43.3-64.2l135.4-54.6c57.8-23.3,57.8-105.2-0.1-128.4L48,537.3
				c-26.2-10.5-43.4-36-43.4-64.2v-0.5C4.6,423.2,54.8,389.7,100.4,408.7z"/>
		</g>
		<g>
			<path d="M552.8,72.3v0.5c0,28.3-17.2,53.7-43.4,64.2l-135.2,54.2c-57.9,23.2-57.9,105.1-0.1,128.4l135.4,54.6
				c26.2,10.6,43.3,36,43.3,64.2l0,0c0,49.4-50.3,82.9-95.9,63.9L47.1,331.1c-25.8-10.8-42.5-35.9-42.5-63.9v-24.6
				c0-28,16.8-53.2,42.6-63.9L457,8.4C502.6-10.6,552.8,22.9,552.8,72.3z"/>
		</g>
	</g>
</g>
</svg>
