<?xml version="1.0" encoding="utf-8"?>
<!-- Generator: Adobe Illustrator 23.0.5, SVG Export Plug-In . SVG Version: 6.00 Build 0)  -->
<svg version="1.1" xmlns="http://www.w3.org/2000/svg" xmlns:xlink="http://www.w3.org/1999/xlink" x="0px" y="0px"
	 viewBox="0 0 1080 1080" style="enable-background:new 0 0 1080 1080;" xml:space="preserve">
<style type="text/css">
	.st0{display:none;}
	.st1{font-family:'Impact';}
	.st2{font-size:260.511px;}
	.st3{display:none;fill:#E6B54A;}
	.st4{font-size:98.1371px;}
	.st5{display:none;fill:#DB9600;stroke:#DB9600;stroke-width:2;stroke-miterlimit:10;}
	.st6{fill:#DB9600;}
	.st7{fill:#211915;}
</style>
<g id="Capa_1" class="st0">
</g>
<g id="Capa_2">
	<text transform="matrix(1 0 0 1 272.5215 573.166)" class="st0 st1 st2">Royal</text>
	<text transform="matrix(3.464102e-07 -1 1 3.464102e-07 265.2843 573.1668)" class="st3 st1 st4">Hotel</text>
	<line class="st5" x1="662.9" y1="594.7" x2="866.8" y2="594.7"/>
	<g>
		<g>
			<path class="st6" d="M361.7,493.2l409.8,170.4c25.8,10.7,42.6,35.9,42.6,63.9V752c0,27.9-16.8,53.1-42.5,63.9L361.8,987.1
				c-45.6,19.1-95.9-14.4-95.9-63.9v0c0-28.2,17.1-53.6,43.3-64.2l135.4-54.6c57.8-23.3,57.8-105.2-0.1-128.4l-135.2-54.2
				c-26.2-10.5-43.4-36-43.4-64.2v-0.5C265.9,507.7,316.1,474.2,361.7,493.2z"/>
		</g>
		<g>
			<path class="st7" d="M814.1,156.8v0.5c0,28.3-17.2,53.7-43.4,64.2l-135.2,54.2c-57.9,23.2-57.9,105.1-0.1,128.4l135.4,54.6
				c26.2,10.6,43.3,36,43.3,64.2v0c0,49.4-50.3,82.9-95.9,63.9L308.4,415.6c-25.8-10.8-42.5-35.9-42.5-63.9v-24.6
				c0-28,16.8-53.2,42.6-63.9L718.3,92.9C763.9,73.9,814.1,107.4,814.1,156.8z"/>
		</g>
	</g>
</g>
</svg>
