<?xml version="1.0" encoding="utf-8"?>
<!-- Generator: Adobe Illustrator 23.0.5, SVG Export Plug-In . SVG Version: 6.00 Build 0)  -->
<svg version="1.1" id="Capa_1" xmlns="http://www.w3.org/2000/svg" xmlns:xlink="http://www.w3.org/1999/xlink" x="0px" y="0px"
	 viewBox="0 0 683.9 247.8" style="enable-background:new 0 0 683.9 247.8;" xml:space="preserve">
<style type="text/css">
	.st0{font-family:'Impact';}
	.st1{font-size:231.1413px;}
	.st2{display:none;fill:#FFAA00;enable-background:new    ;}
	.st3{font-size:98.1371px;}
	.st4{fill:none;stroke:#FFAA00;stroke-width:10;stroke-miterlimit:10;}
	.st5{fill:#FFAA00;}
</style>
<text transform="matrix(1 0 0 1 151.1191 206.9326)" class="st0 st1">Royal</text>
<text transform="matrix(3.464102e-07 -1 1 3.464102e-07 82.4607 215.2257)" class="st2 st0 st3">Hotel</text>
<line class="st4" x1="485" y1="220" x2="675" y2="220"/>
<g>
	<g>
		<path class="st5" d="M44,107.3l92.4,38.4c5.8,2.4,9.6,8.1,9.6,14.4v5.5c0,6.3-3.8,12-9.6,14.4L44,218.7
			c-10.3,4.3-21.6-3.2-21.6-14.4l0,0c0-6.4,3.9-12.1,9.8-14.5l30.5-12.3c13-5.3,13-23.7,0-28.9l-30.5-12.2
			c-5.9-2.4-9.8-8.1-9.8-14.5v-0.1C22.4,110.6,33.7,103.1,44,107.3z"/>
	</g>
	<g>
		<path d="M146,31.5v0.1c0,6.4-3.9,12.1-9.8,14.5l-30.5,12.2c-13,5.2-13.1,23.7,0,28.9l30.5,12.3c5.9,2.4,9.8,8.1,9.8,14.5l0,0
			c0,11.1-11.3,18.7-21.6,14.4L32,89.8c-5.8-2.4-9.6-8.1-9.6-14.4v-5.5c0-6.3,3.8-12,9.6-14.4l92.4-38.4
			C134.7,12.8,146,20.4,146,31.5z"/>
	</g>
</g>
</svg>
