<?xml version="1.0" encoding="utf-8"?>
<!-- Generator: Adobe Illustrator 23.0.5, SVG Export Plug-In . SVG Version: 6.00 Build 0)  -->
<svg version="1.1" id="Layer_1" xmlns="http://www.w3.org/2000/svg" xmlns:xlink="http://www.w3.org/1999/xlink" x="0px" y="0px"
	 viewBox="0 0 128 128" style="enable-background:new 0 0 128 128;" xml:space="preserve">
<style type="text/css">
	.st0{fill:#FFA500;}
</style>
<path class="st0" d="M88.3,111.8c-1.2,0-2.3-0.4-3.3-1c-0.5-0.4-18.8-13.7-23.7-17.3l-23.7,17.2c-1,0.7-2.2,1.1-3.4,1.1
	c-3.2,0-5.9-2.6-5.9-5.9c0-0.6,0.1-1.3,0.3-2l0-0.1c0.3-0.7,6.2-19,9-27.6c-7.3-5.4-23-16.8-23.7-17.3c-1.6-1.1-2.5-2.9-2.5-4.8
	c0-3.3,2.6-6,5.8-6h29.3l8.9-27.6c0.7-2.4,3-4.2,5.6-4.2c2.6,0,4.9,1.8,5.6,4.3l8.9,27.5h29.3c3.2,0,5.8,2.7,5.8,6
	c0,1.9-0.9,3.7-2.5,4.8c-0.7,0.5-16.3,11.9-23.7,17.3c2.8,8.6,8.8,26.9,9,27.6c0.2,0.7,0.4,1.4,0.4,2
	C94.2,109.2,91.5,111.8,88.3,111.8z M61.3,64.1L61.3,64.1C69.7,70.2,60.8,63.8,61.3,64.1C61.6,64.3,60.9,64.1,61.3,64.1
	C62.3,64.1,61.3,65.1,61.3,64.1C61.3,63.9,61.3,64.4,61.3,64.1c-0.1-0.4,2.7,8.3-0.1-0.4l0,0l0,0c2.5-1.8-0.6,0.4,0,0
	c0.5-0.3,0,0.6,0,0C61.1,62.7,62.2,64.1,61.3,64.1l11.7-11.9l-6.5,17.5C66.2,68.8,62.1,64.1,61.3,64.1c-0.8,0-13.2,3.8-13.4,4.6
	l1.8-16.5L75,62.5C74,62.5,61.3,63,61.3,64.1C61.3,64.7,60.8,63.8,61.3,64.1C61.9,64.5,58.8,62.3,61.3,64.1L61.3,64.1L61.3,64.1
	C58.5,72.5,61.8,62.5,61.3,64.1L61.3,64.1C61.2,64.4,61.3,63.9,61.3,64.1C61.3,65.1,60.2,64.1,61.3,64.1
	C61.6,64.1,60.9,64.3,61.3,64.1L61.3,64.1z"/>
</svg>
